<svg xmlns="http://www.w3.org/2000/svg" viewBox="0 0 530.23 732.54"><defs><style>.cls-1{fill:#fff;}.cls-2{fill:#005b96;}</style></defs><g id="Layer_2" data-name="Layer 2"><g id="Layer_1-2" data-name="Layer 1"><path class="cls-1" d="M527,266.18a25,25,0,0,0-21.81-12.8H488.64c.15-.28.31-.55.46-.84a25,25,0,0,0-2.61-26.29l-68.76-89.41a25,25,0,0,0-19.82-9.76H380.77a24.9,24.9,0,0,0-5-12.33L331.62,57.33a25,25,0,0,0-19.82-9.76h-.38a25.14,25.14,0,0,0-4.41-9.1L284.93,9.76a25,25,0,0,0-39.63,0L223.22,38.47a24.82,24.82,0,0,0-4.41,9.1h-.38a25,25,0,0,0-19.82,9.76l-44.15,57.42a25,25,0,0,0-5,12.33H132.32a25,25,0,0,0-19.82,9.76L43.74,226.25a25,25,0,0,0-2.61,26.29c.14.29.3.56.46.84H25A25,25,0,0,0,3.69,291.46L227.91,656.77a24.86,24.86,0,0,0-5.42,15.53v35.24a25,25,0,0,0,25,25h35.24a25,25,0,0,0,25-25V672.3a24.86,24.86,0,0,0-5.42-15.53L526.53,291.46A25,25,0,0,0,527,266.18Z"/><g id="Brandmark"><polygon class="cls-2" points="287.19 53.71 265.11 25 243.04 53.71 265.11 53.71 287.19 53.71"/><polygon class="cls-2" points="311.8 72.57 265.11 72.57 218.43 72.57 174.27 129.99 265.11 129.99 355.95 129.99 311.8 72.57"/><polygon class="cls-2" points="397.91 152.08 267.7 152.08 265.16 152.08 132.32 152.08 63.56 241.5 265.16 241.5 267.7 241.5 466.67 241.5 397.91 152.08"/><path class="cls-2" d="M215.13,281.33c0-1,0-2,.09-2.95H25L256.31,655.23,249.05,330A51.87,51.87,0,0,1,215.13,281.33Z"/><path class="cls-2" d="M315.1,281.33c0-1,0-2-.09-2.95H505.23L273.92,655.23,281.18,330A51.87,51.87,0,0,0,315.1,281.33Z"/><rect class="cls-2" x="247.49" y="672.3" width="35.24" height="35.24"/></g></g></g></svg>