<svg id="Layer_1" data-name="Layer 1" xmlns="http://www.w3.org/2000/svg" viewBox="0 0 2239.38 1264.24"><defs><style>.cls-1{fill:#005b96;}</style></defs><polygon class="cls-1" points="497.87 265.7 475.79 236.99 453.71 265.7 475.79 265.7 497.87 265.7"/><polygon class="cls-1" points="522.48 284.56 475.79 284.56 429.1 284.56 384.95 341.98 475.79 341.98 566.63 341.98 522.48 284.56"/><polygon class="cls-1" points="608.59 364.07 478.38 364.07 475.83 364.07 343 364.07 274.24 453.49 475.83 453.49 478.38 453.49 677.35 453.49 608.59 364.07"/><path class="cls-1" d="M425.81,493.32c0-1,0-2,.09-2.95H235.68L467,867.22,459.73,542A51.85,51.85,0,0,1,425.81,493.32Z"/><path class="cls-1" d="M525.77,493.32c0-1,0-2-.09-2.95H715.9L484.6,867.22,491.86,542A51.85,51.85,0,0,0,525.77,493.32Z"/><path class="cls-1" d="M912.39,491.57H964L888.83,732.45H833.14l-75-240.88h51.57l40.86,145q.82,2.81,2.22,9.39t3,14.5q1.56,7.9,3.05,15.82t2.3,13.34q.83-5.43,2.31-13.34t3.13-15.74q1.65-7.81,3.21-14.41c1-4.4,1.84-7.58,2.39-9.56Z"/><path class="cls-1" d="M1133,732.45H994.28V491.57H1133v41.85h-87.65v52.89h81.56v41.85h-81.56v62.11H1133Z"/><path class="cls-1" d="M1278.82,530.62q-14.67,0-26,5.69a51.71,51.71,0,0,0-18.94,16.31q-7.67,10.62-11.62,25.86a136.12,136.12,0,0,0-4,34.19,149.25,149.25,0,0,0,3.54,34.27q3.54,15,10.87,25.29a47.25,47.25,0,0,0,18.78,15.65q11.46,5.36,27.27,5.36a134.28,134.28,0,0,0,29.41-3.3,280.52,280.52,0,0,0,32-9.39v42.84a156.94,156.94,0,0,1-15.66,5.6,150.43,150.43,0,0,1-15.81,3.79q-8.08,1.49-16.56,2.22t-18.21.75q-27.84,0-48.27-8.9a89.32,89.32,0,0,1-33.78-25q-13.34-16.15-19.77-38.89t-6.42-50.58q0-27.35,7.41-50.17A111.45,111.45,0,0,1,1195,522.88a97.74,97.74,0,0,1,35.42-25.62q21.09-9.15,48.44-9.15a147.37,147.37,0,0,1,36,4.53,182.9,182.9,0,0,1,34.52,12.44l-16.48,41.52a274.6,274.6,0,0,0-27.18-11.2A81,81,0,0,0,1278.82,530.62Z"/><path class="cls-1" d="M1479.33,732.45h-50.91V534.08H1368V491.57h171.68v42.51h-60.31Z"/><path class="cls-1" d="M1768.5,611.68q0,27.86-6.51,50.75t-19.85,39.21a88.68,88.68,0,0,1-33.7,25.21q-20.34,8.89-48,8.9t-48-8.9a87.91,87.91,0,0,1-33.61-25.21q-13.26-16.3-19.77-39.29t-6.51-51q0-28,6.51-50.83t19.85-39a88.76,88.76,0,0,1,33.69-25q20.35-8.82,48.2-8.82,27.68,0,47.94,8.82a87.7,87.7,0,0,1,33.53,25q13.26,16.23,19.77,39.05T1768.5,611.68Zm-163.44,0a159.74,159.74,0,0,0,3.29,34q3.3,15.09,10.14,25.54a47.11,47.11,0,0,0,17.21,16.07q10.38,5.6,24.72,5.6,14.65,0,25.12-5.6a45.71,45.71,0,0,0,17.14-16.07q6.67-10.46,9.88-25.54a181.32,181.32,0,0,0,0-68q-3.21-15.07-9.88-25.62a45.76,45.76,0,0,0-17.06-16.15q-10.38-5.6-24.87-5.6-14.34,0-24.88,5.6A46.54,46.54,0,0,0,1618.49,552q-6.84,10.55-10.14,25.62A159.74,159.74,0,0,0,1605.06,611.68Z"/><path class="cls-1" d="M1855.83,640v92.43h-51.07V491.57h65.9q46.29,0,68.38,17.88t22.07,54.29a71.76,71.76,0,0,1-3.29,22.4A66.88,66.88,0,0,1,1949,604a68.37,68.37,0,0,1-12.68,13.68,81.7,81.7,0,0,1-15.08,9.8q18.29,29.32,32.79,52.39,6.26,9.89,12.11,19.28L1976.6,716q4.61,7.42,7.58,11.87l2.8,4.61H1930.3L1878.07,640Zm0-41.52h13.84q21.25,0,30.48-8.48t9.23-25q0-17.14-9.89-24.39t-30.64-7.25h-13Z"/><rect class="cls-1" x="458.17" y="884.29" width="35.24" height="35.24"/><rect class="cls-1" x="235.68" y="896.9" width="1722.32" height="10.02"/><polygon class="cls-1" points="1948.06 916.47 2002.39 901.91 1948.06 887.35 1948.06 916.47"/><path class="cls-1" d="M817.4,848.11V787.28h19.13q11.91,0,19.15,7.33t7.25,18.95v8.31q0,11.65-7.25,19t-19.15,7.29Zm8.23-54.36v47.92h10.9q8.43,0,13.3-5.55t4.87-14.25v-8.4q0-8.6-4.87-14.16t-13.3-5.56Z"/><path class="cls-1" d="M905.15,848.11h-8.27V787.28h8.27Z"/><path class="cls-1" d="M949.17,821.74v26.37h-8.23V787.32h20.8q10,0,15.25,4.43t5.26,12.87a13.74,13.74,0,0,1-2.44,8.14,16.61,16.61,0,0,1-7.12,5.52,12.45,12.45,0,0,1,7.2,5.28,17.33,17.33,0,0,1,2.2,9.05v5.72a19.06,19.06,0,0,0,.62,5.1,7.62,7.62,0,0,0,2.17,3.67v1H976.4a6.81,6.81,0,0,1-2.08-4.18,34.11,34.11,0,0,1-.46-5.68v-5.56a11,11,0,0,0-2.89-7.94,10.2,10.2,0,0,0-7.72-3Zm0-6.47h11.74q7,0,10-2.65t3.07-8.09c0-3.42-1-6.08-3-8s-5.09-2.82-9.3-2.82H949.17Z"/><path class="cls-1" d="M1049.29,819.91h-25v21.76h29.24v6.44h-37.47V787.28h37v6.47h-28.78v19.68h25Z"/><path class="cls-1" d="M1127.39,828.64l.09.25a18.3,18.3,0,0,1-6,14.33q-6.18,5.76-16.33,5.76a21.44,21.44,0,0,1-16.82-7.31q-6.49-7.3-6.49-18.55V812.3q0-11.24,6.49-18.57a21.46,21.46,0,0,1,16.82-7.33q10.32,0,16.41,5.5t5.94,14.55l-.09.26h-7.89q0-6.4-3.76-10.11t-10.61-3.72a13,13,0,0,0-11,5.55,22.62,22.62,0,0,0-4.1,13.79v10.9q0,8.32,4.1,13.87a13,13,0,0,0,11,5.56q6.84,0,10.61-3.7t3.76-10.21Z"/><path class="cls-1" d="M1201.4,793.75h-20.05v54.36h-8.23V793.75h-19.8v-6.47h48.08Z"/><path class="cls-1" d="M1292.57,818.19l15.87-30.91h9.4l-21.34,39.44v21.39h-8.19v-22l-21-38.81h9.4Z"/><path class="cls-1" d="M1394,823.12q0,11.16-6.91,18.51T1369.13,849q-10.65,0-17.32-7.35t-6.66-18.51V812.3q0-11.1,6.66-18.5t17.32-7.4q11,0,17.94,7.38T1394,812.3Zm-8.22-10.9q0-8.36-4.52-13.7a15,15,0,0,0-12.11-5.35,13.94,13.94,0,0,0-11.47,5.35q-4.28,5.34-4.28,13.7v10.9q0,8.45,4.28,13.79a14,14,0,0,0,11.47,5.35,15,15,0,0,0,12.13-5.33q4.5-5.32,4.5-13.81Z"/><path class="cls-1" d="M1471.42,787.28v40.4q0,10-6.52,15.66T1448.11,849q-9.9,0-16.21-5.66t-6.31-15.64v-40.4h8.23v40.4q0,7,4,10.92a14,14,0,0,0,10.3,3.95A15.24,15.24,0,0,0,1459,838.6q4.2-3.95,4.2-10.92v-40.4Z"/><path class="cls-1" d="M1513.39,821.74v26.37h-8.23V787.32H1526q10,0,15.25,4.43t5.27,12.87a13.75,13.75,0,0,1-2.45,8.14,16.61,16.61,0,0,1-7.12,5.52,12.5,12.5,0,0,1,7.21,5.28,17.33,17.33,0,0,1,2.19,9.05v5.72a19,19,0,0,0,.63,5.1,7.55,7.55,0,0,0,2.17,3.67v1h-8.48a6.77,6.77,0,0,1-2.09-4.18,34.11,34.11,0,0,1-.46-5.68v-5.56a11,11,0,0,0-2.88-7.94,10.23,10.23,0,0,0-7.73-3Zm0-6.47h11.74q7,0,10-2.65c2-1.77,3.07-4.47,3.07-8.09,0-3.42-1-6.08-3-8s-5.09-2.82-9.3-2.82h-12.57Z"/><path class="cls-1" d="M1640.73,832.15l1.38,5.05h.25l1.38-5.05,15.71-44.87h8.9l-22.6,60.83h-7.06l-22.61-60.83h9Z"/><path class="cls-1" d="M1706.18,848.11h-8.27V787.28h8.27Z"/><path class="cls-1" d="M1774.38,832.77a9.16,9.16,0,0,0-3-6.93q-3-2.8-10.45-4.76-9.27-2.31-14.47-6.77a14.19,14.19,0,0,1-5.2-11.24,15,15,0,0,1,5.6-11.91q5.6-4.75,14.53-4.76,9.61,0,15.31,5.45a16.51,16.51,0,0,1,5.54,12.72l-.13.26h-7.85a11.27,11.27,0,0,0-3.61-8.57,13,13,0,0,0-9.26-3.38c-3.84,0-6.79.93-8.83,2.8a9.36,9.36,0,0,0-3.07,7.27,8.13,8.13,0,0,0,3.36,6.62q3.36,2.65,10.92,4.65,9.2,2.38,14,7a15.29,15.29,0,0,1,4.8,11.45,14.22,14.22,0,0,1-5.78,11.82Q1771,849,1761.73,849a25.68,25.68,0,0,1-15.57-4.93,15,15,0,0,1-6.53-13.2l.08-.25h7.85a10.23,10.23,0,0,0,4.35,8.84,16.47,16.47,0,0,0,9.82,3.11c3.89,0,7-.88,9.25-2.63A8.56,8.56,0,0,0,1774.38,832.77Z"/><path class="cls-1" d="M1824.08,848.11h-8.27V787.28h8.27Z"/><path class="cls-1" d="M1906.32,823.12q0,11.16-6.91,18.51t-18,7.35q-10.65,0-17.31-7.35t-6.66-18.51V812.3q0-11.1,6.66-18.5t17.31-7.4q11,0,18,7.38t6.91,18.52Zm-8.23-10.9q0-8.36-4.51-13.7a15,15,0,0,0-12.12-5.35,13.9,13.9,0,0,0-11.46,5.35q-4.29,5.34-4.28,13.7v10.9q0,8.45,4.28,13.79a13.93,13.93,0,0,0,11.46,5.35q7.65,0,12.14-5.33t4.49-13.81Z"/><path class="cls-1" d="M1984.89,848.11h-8.23l-29.29-46.46-.25.08v46.38h-8.23V787.28h8.23l29.29,46.41.25-.08V787.28h8.23Z"/><path class="cls-1" d="M254.82,994.17q4.65,0,6.57-2.3a9.85,9.85,0,0,0,1.92-6.47,9.08,9.08,0,0,0-2.09-6.25q-2.1-2.39-6.22-2.38a9.29,9.29,0,0,0-6.64,2.48,8.22,8.22,0,0,0-2.63,6.22h-6.62l-.1-.21a12.23,12.23,0,0,1,4.36-9.86A16.72,16.72,0,0,1,255,971.31q7.15,0,11.2,3.61t4.05,10.62a12,12,0,0,1-1.88,6.55,12.64,12.64,0,0,1-5.27,4.62,12.08,12.08,0,0,1,5.9,4.7,13.83,13.83,0,0,1,2,7.63q0,7.05-4.46,11t-11.57,4a18.29,18.29,0,0,1-11.54-3.86,11.83,11.83,0,0,1-4.81-10.19l.07-.22h6.63a8.34,8.34,0,0,0,2.69,6.29,9.69,9.69,0,0,0,7,2.56,8.63,8.63,0,0,0,6.66-2.63,9.68,9.68,0,0,0,2.43-6.85c0-3.22-.75-5.62-2.24-7.22s-3.83-2.4-7-2.4h-5.7v-5.39Z"/><path class="cls-1" d="M305.43,1001.11v22.23h-6.94V972.08H316q8.41,0,12.86,3.74t4.43,10.85a11.58,11.58,0,0,1-2.06,6.87,13.91,13.91,0,0,1-6,4.65,10.48,10.48,0,0,1,6.07,4.46,14.49,14.49,0,0,1,1.85,7.62v4.83a16.17,16.17,0,0,0,.53,4.3,6.41,6.41,0,0,0,1.83,3.1v.84H328.4a5.78,5.78,0,0,1-1.76-3.52,28.94,28.94,0,0,1-.39-4.79v-4.69a9.26,9.26,0,0,0-2.43-6.69,8.61,8.61,0,0,0-6.52-2.54Zm0-5.46h9.9c3.92,0,6.75-.74,8.47-2.23s2.59-3.77,2.59-6.82a8.8,8.8,0,0,0-2.51-6.71c-1.68-1.59-4.3-2.38-7.84-2.38H305.43Z"/><path class="cls-1" d="M361.86,1023.34V972.05H378q10,0,16.15,6.18t6.11,16v7q0,9.82-6.11,16T378,1023.34Zm6.94-45.83v40.41H378q7.11,0,11.22-4.69t4.1-12v-7.08a17.43,17.43,0,0,0-4.1-11.94q-4.11-4.69-11.22-4.69Z"/><path class="cls-1" d="M502.35,1023.34h-6.94l-24.69-39.17-.21.07v39.1h-6.94V972.05h6.94l24.69,39.14.21-.07V972.05h6.94Z"/><path class="cls-1" d="M558.32,1010.13H539l-4.58,13.21h-7.08l18.5-51.29h5.95l18.11,51.29h-7.08Zm-17.3-5.81h15.32l-7.46-22h-.21Z"/><path class="cls-1" d="M630.77,977.51H613.86v45.83h-6.94V977.51h-16.7v-5.46h40.55Z"/><path class="cls-1" d="M663.2,1023.34h-7V972.05h7Z"/><path class="cls-1" d="M732.55,1002.28q0,9.4-5.83,15.6t-15.13,6.2a18.75,18.75,0,0,1-14.6-6.2q-5.62-6.2-5.62-15.6v-9.13q0-9.37,5.62-15.6a18.72,18.72,0,0,1,14.6-6.24q9.3,0,15.13,6.22a21.92,21.92,0,0,1,5.83,15.62Zm-6.94-9.2a17.3,17.3,0,0,0-3.8-11.55A12.69,12.69,0,0,0,711.59,977a11.75,11.75,0,0,0-9.67,4.51q-3.61,4.5-3.61,11.55v9.2q0,7.11,3.61,11.62a11.75,11.75,0,0,0,9.67,4.51,12.69,12.69,0,0,0,10.23-4.49q3.79-4.5,3.79-11.64Z"/><path class="cls-1" d="M798.8,1023.34h-6.94l-24.69-39.17-.21.07v39.1H760V972.05H767l24.69,39.14.21-.07V972.05h6.94Z"/><path class="cls-1" d="M854.77,1010.13H835.46l-4.58,13.21H823.8l18.49-51.29h6l18.11,51.29h-7.09Zm-17.3-5.81h15.32l-7.47-22h-.21Z"/><path class="cls-1" d="M898.29,1017.92h25v5.42h-32V972.05h6.94Z"/><path class="cls-1" d="M1019.73,977.51h-16.91v45.83h-6.94V977.51H979.19v-5.46h40.54Z"/><path class="cls-1" d="M1072.49,999.56h-21.06v18.36h24.66v5.42h-31.6V972.05h31.21v5.46h-24.27V994.1h21.06Z"/><path class="cls-1" d="M1138.35,1006.93l.08.21a15.41,15.41,0,0,1-5.08,12.08q-5.2,4.86-13.77,4.86a18.08,18.08,0,0,1-14.18-6.16q-5.48-6.17-5.48-15.64v-9.13q0-9.48,5.48-15.66a18.07,18.07,0,0,1,14.18-6.18q8.7,0,13.84,4.63t5,12.28l-.08.21h-6.65a11.45,11.45,0,0,0-3.17-8.52q-3.18-3.13-9-3.14a10.92,10.92,0,0,0-9.27,4.69,19,19,0,0,0-3.45,11.62v9.2a19.17,19.17,0,0,0,3.45,11.69,10.94,10.94,0,0,0,9.27,4.69q5.78,0,9-3.12t3.17-8.61Z"/><path class="cls-1" d="M1203.69,1023.34h-6.94v-22.65h-24.91v22.65h-6.93V972.05h6.93v23.18h24.91V972.05h6.94Z"/><path class="cls-1" d="M1271.91,1023.34H1265l-24.69-39.17-.21.07v39.1h-6.94V972.05h6.94l24.69,39.14.21-.07V972.05h6.94Z"/><path class="cls-1" d="M1309.07,1023.34h-7V972.05h7Z"/><path class="cls-1" d="M1375.84,1006.93l.08.21a15.41,15.41,0,0,1-5.08,12.08q-5.21,4.86-13.77,4.86a18.08,18.08,0,0,1-14.18-6.16q-5.48-6.17-5.48-15.64v-9.13q0-9.48,5.48-15.66a18.07,18.07,0,0,1,14.18-6.18q8.7,0,13.84,4.63t5,12.28l-.08.21h-6.65a11.45,11.45,0,0,0-3.17-8.52q-3.18-3.13-9-3.14a10.92,10.92,0,0,0-9.27,4.69,19,19,0,0,0-3.45,11.62v9.2a19.17,19.17,0,0,0,3.45,11.69,10.94,10.94,0,0,0,9.27,4.69q5.78,0,9-3.12t3.17-8.61Z"/><path class="cls-1" d="M1428.89,1010.13h-19.31l-4.58,13.21h-7.08l18.5-51.29h5.95l18.11,51.29h-7.08Zm-17.3-5.81h15.32l-7.47-22h-.21Z"/><path class="cls-1" d="M1472.41,1017.92h25v5.42h-32V972.05h6.94Z"/><path class="cls-1" d="M1586.56,1000.66h-21.63v22.68H1558V972.05h32.17v5.46h-25.23v17.68h21.63Z"/><path class="cls-1" d="M1643.27,999.56H1622.2v18.36h24.66v5.42h-31.6V972.05h31.21v5.46H1622.2V994.1h21.07Z"/><path class="cls-1" d="M1699.86,1010.41a7.69,7.69,0,0,0-2.5-5.84q-2.5-2.37-8.81-4-7.82-1.93-12.2-5.71a12,12,0,0,1-4.39-9.47,12.65,12.65,0,0,1,4.72-10q4.72-4,12.26-4,8.1,0,12.91,4.6a13.88,13.88,0,0,1,4.67,10.72l-.1.22h-6.63a9.48,9.48,0,0,0-3-7.23,11,11,0,0,0-7.81-2.85q-4.86,0-7.45,2.36a7.93,7.93,0,0,0-2.59,6.13,6.84,6.84,0,0,0,2.84,5.58q2.84,2.25,9.21,3.93,7.75,2,11.8,5.92a12.9,12.9,0,0,1,4,9.65,12,12,0,0,1-4.88,10q-4.87,3.78-12.73,3.77a21.58,21.58,0,0,1-13.12-4.16,12.67,12.67,0,0,1-5.52-11.13l.07-.21h6.63a8.62,8.62,0,0,0,3.66,7.45,13.86,13.86,0,0,0,8.28,2.63,12.43,12.43,0,0,0,7.8-2.22A7.2,7.2,0,0,0,1699.86,1010.41Z"/><path class="cls-1" d="M1770,977.51H1753v45.83h-6.93V977.51h-16.7v-5.46H1770Z"/><path class="cls-1" d="M1802.39,1023.34h-7V972.05h7Z"/><path class="cls-1" d="M1848.13,1009.88l1.17,4.27h.21l1.16-4.27,13.25-37.83h7.5l-19.06,51.29h-5.95l-19.06-51.29h7.54Z"/><path class="cls-1" d="M1922.14,1010.13h-19.31l-4.58,13.21h-7.08l18.49-51.29h6l18.11,51.29h-7.09Zm-17.3-5.81h15.32l-7.47-22h-.21Z"/><path class="cls-1" d="M1965.66,1017.92h25v5.42h-32V972.05h6.94Z"/></svg>