<svg id="Layer_1" data-name="Layer 1" xmlns="http://www.w3.org/2000/svg" viewBox="0 0 1839.52 1956.84"><defs><style>.cls-1{fill:#005b96;}</style></defs><polygon class="cls-1" points="917.41 274.84 888.3 236.99 859.2 274.84 888.3 274.84 917.41 274.84"/><polygon class="cls-1" points="949.87 299.72 888.3 299.72 826.74 299.72 768.52 375.43 888.3 375.43 1008.09 375.43 949.87 299.72"/><polygon class="cls-1" points="1063.42 404.57 891.71 404.57 888.36 404.57 713.19 404.57 622.52 522.47 888.36 522.47 891.71 522.47 1154.09 522.47 1063.42 404.57"/><path class="cls-1" d="M822.39,575c0-1.31.05-2.6.12-3.89H571.67l305,496.93-9.57-428.89A68.37,68.37,0,0,1,822.39,575Z"/><path class="cls-1" d="M954.21,575c0-1.31,0-2.6-.11-3.89h250.84l-305,496.93,9.57-428.89A68.36,68.36,0,0,0,954.21,575Z"/><path class="cls-1" d="M403.44,1223.44h55l-80.06,256.72H319l-79.9-256.72h55L337.6,1378q.87,3,2.37,10t3.16,15.45q1.67,8.43,3.25,16.86t2.46,14.22q.87-5.79,2.45-14.22t3.34-16.77q1.75-8.34,3.42-15.36c1.12-4.68,2-8.08,2.55-10.19Z"/><path class="cls-1" d="M638.56,1480.16H490.71V1223.44H638.56V1268H545.15v56.37h86.91V1369H545.15v66.2h93.41Z"/><path class="cls-1" d="M794,1265.06q-15.63,0-27.66,6.06a55.18,55.18,0,0,0-20.19,17.38q-8.18,11.32-12.38,27.57a145.17,145.17,0,0,0-4.22,36.43A159.32,159.32,0,0,0,733.3,1389q3.76,16,11.59,27a50.28,50.28,0,0,0,20,16.68q12.2,5.7,29.06,5.71a142.87,142.87,0,0,0,31.34-3.52,301.39,301.39,0,0,0,34.15-10v45.65a169.2,169.2,0,0,1-16.68,6,161.73,161.73,0,0,1-16.86,4q-8.59,1.58-17.64,2.37t-19.41.79q-29.67,0-51.44-9.48a95.09,95.09,0,0,1-36-26.69q-14.22-17.2-21.07-41.44t-6.85-53.91q0-29.14,7.9-53.47t23.18-41.88a104.26,104.26,0,0,1,37.75-27.3q22.49-9.75,51.63-9.74a157.45,157.45,0,0,1,38.36,4.82,194.7,194.7,0,0,1,36.79,13.26l-17.56,44.25a291.45,291.45,0,0,0-29-11.94A86.58,86.58,0,0,0,794,1265.06Z"/><path class="cls-1" d="M1007.66,1480.16H953.4V1268.74H889v-45.3h183v45.3h-64.27Z"/><path class="cls-1" d="M1315.84,1351.45q0,29.67-6.94,54.08t-21.16,41.79a94.42,94.42,0,0,1-35.91,26.87q-21.69,9.48-51.18,9.48t-51.19-9.48a93.65,93.65,0,0,1-35.82-26.87q-14.13-17.38-21.07-41.88t-6.93-54.34q0-29.85,6.93-54.17t21.16-41.53a94.41,94.41,0,0,1,35.91-26.6q21.69-9.39,51.36-9.4,29.51,0,51.1,9.4a93.54,93.54,0,0,1,35.73,26.69q14.13,17.29,21.07,41.61T1315.84,1351.45Zm-174.19,0a170.56,170.56,0,0,0,3.51,36.26q3.51,16.07,10.8,27.21a50.11,50.11,0,0,0,18.35,17.12q11.06,6,26.34,6,15.63,0,26.78-6a48.59,48.59,0,0,0,18.26-17.12q7.11-11.14,10.53-27.21a193.37,193.37,0,0,0,0-72.52q-3.42-16.07-10.53-27.31a48.65,48.65,0,0,0-18.18-17.2q-11.05-6-26.51-6-15.29,0-26.51,6a49.58,49.58,0,0,0-18.53,17.2q-7.29,11.25-10.8,27.31A170.56,170.56,0,0,0,1141.65,1351.45Z"/><path class="cls-1" d="M1408.91,1381.65v98.51h-54.43V1223.44h70.24q49.33,0,72.87,19t23.53,57.86a76.4,76.4,0,0,1-3.52,23.88,71.42,71.42,0,0,1-9.39,19,73.15,73.15,0,0,1-13.52,14.58,86.41,86.41,0,0,1-16.07,10.44q19.5,31.26,35,55.84,6.66,10.54,12.9,20.55l11.15,17.91q4.92,7.9,8.08,12.64l3,4.92h-60.4l-55.66-98.51Zm0-44.25h14.75q22.65,0,32.49-9t9.83-26.6q0-18.27-10.54-26t-32.66-7.73h-13.87Z"/><rect class="cls-1" x="865.07" y="1090.56" width="46.47" height="46.47"/><rect class="cls-1" x="239" y="1563.8" width="1326.28" height="16.31"/><polygon class="cls-1" points="1552.36 1590.9 1623.07 1571.95 1552.36 1553 1552.36 1590.9"/><path class="cls-1" d="M237,1719v-61h19.18q11.94,0,19.21,7.35t7.27,19v8.33q0,11.68-7.27,19T256.17,1719Zm8.25-54.5v48h10.93q8.46,0,13.35-5.57t4.87-14.29v-8.42q0-8.62-4.87-14.2t-13.35-5.57Z"/><path class="cls-1" d="M333.56,1719h-8.3v-61h8.3Z"/><path class="cls-1" d="M386.27,1692.54V1719H378v-61h20.86q10,0,15.29,4.44t5.28,12.9a13.84,13.84,0,0,1-2.45,8.17,16.56,16.56,0,0,1-7.14,5.53,12.49,12.49,0,0,1,7.22,5.3,17.31,17.31,0,0,1,2.2,9.07v5.74a19.06,19.06,0,0,0,.63,5.11,7.72,7.72,0,0,0,2.18,3.68v1h-8.5a6.85,6.85,0,0,1-2.1-4.19,34.26,34.26,0,0,1-.46-5.7v-5.57a11,11,0,0,0-2.89-8,10.24,10.24,0,0,0-7.75-3Zm0-6.5H398q7,0,10.07-2.65t3.08-8.11q0-5.15-3-8t-9.32-2.83h-12.6Z"/><path class="cls-1" d="M495.23,1690.69H470.18v21.83H499.5V1719H461.93v-61H499v6.49H470.18v19.73h25.05Z"/><path class="cls-1" d="M582.12,1699.45l.09.25a18.33,18.33,0,0,1-6,14.37q-6.2,5.78-16.37,5.78a21.52,21.52,0,0,1-16.86-7.33q-6.53-7.33-6.52-18.6v-10.85q0-11.27,6.52-18.62a21.48,21.48,0,0,1,16.86-7.35q10.34,0,16.46,5.51t6,14.6l-.09.25H574.2q0-6.4-3.76-10.14t-10.64-3.73a13,13,0,0,0-11,5.57q-4.11,5.58-4.1,13.83v10.93q0,8.34,4.1,13.91a13,13,0,0,0,11,5.57q6.87,0,10.64-3.71t3.76-10.24Z"/><path class="cls-1" d="M664.91,1664.47H644.8V1719h-8.25v-54.5H616.7V1658h48.21Z"/><path class="cls-1" d="M773.47,1689l15.92-31h9.42l-21.4,39.54V1719H769.2v-22.08L748.13,1658h9.42Z"/><path class="cls-1" d="M883.73,1693.92q0,11.19-6.93,18.55t-18,7.38q-10.68,0-17.36-7.38t-6.68-18.55v-10.85q0-11.14,6.68-18.56t17.36-7.41q11.06,0,18,7.39t6.93,18.58ZM875.48,1683q0-8.38-4.52-13.74a15.08,15.08,0,0,0-12.15-5.36,14,14,0,0,0-11.5,5.36Q843,1674.61,843,1683v10.93q0,8.46,4.29,13.82a14,14,0,0,0,11.5,5.36q7.66,0,12.17-5.34t4.5-13.84Z"/><path class="cls-1" d="M970,1658v40.5q0,10.07-6.53,15.71t-16.84,5.66q-9.93,0-16.25-5.68T924,1698.48V1658h8.25v40.5q0,7,4,11a14,14,0,0,0,10.32,4,15.28,15.28,0,0,0,10.91-4q4.21-4,4.21-11V1658Z"/><path class="cls-1" d="M1020.61,1692.54V1719h-8.25v-61h20.86q10,0,15.29,4.44t5.27,12.9a13.77,13.77,0,0,1-2.45,8.17,16.56,16.56,0,0,1-7.14,5.53,12.55,12.55,0,0,1,7.23,5.3,17.41,17.41,0,0,1,2.2,9.07v5.74a19.06,19.06,0,0,0,.63,5.11,7.63,7.63,0,0,0,2.17,3.68v1h-8.5a6.79,6.79,0,0,1-2.09-4.19,34.26,34.26,0,0,1-.46-5.7v-5.57a11.06,11.06,0,0,0-2.89-8,10.24,10.24,0,0,0-7.75-3Zm0-6.5h11.77q7,0,10.07-2.65c2.06-1.78,3.08-4.48,3.08-8.11q0-5.15-3-8t-9.32-2.83h-12.61Z"/><path class="cls-1" d="M1165.45,1703l1.38,5.06h.25l1.38-5.06,15.75-45h8.92l-22.66,61h-7.08l-22.66-61h9Z"/><path class="cls-1" d="M1239.65,1719h-8.3v-61h8.3Z"/><path class="cls-1" d="M1316.61,1703.6a9.19,9.19,0,0,0-3-7q-3-2.81-10.48-4.77-9.3-2.31-14.51-6.79a14.22,14.22,0,0,1-5.21-11.27,15,15,0,0,1,5.61-11.93q5.61-4.79,14.58-4.78,9.63,0,15.35,5.47a16.55,16.55,0,0,1,5.55,12.75l-.13.25h-7.87a11.23,11.23,0,0,0-3.63-8.58,13,13,0,0,0-9.27-3.4q-5.79,0-8.86,2.81a9.38,9.38,0,0,0-3.08,7.29,8.15,8.15,0,0,0,3.37,6.64q3.38,2.65,11,4.67,9.23,2.38,14,7a15.3,15.3,0,0,1,4.82,11.48,14.25,14.25,0,0,1-5.8,11.86q-5.8,4.47-15.14,4.48a25.72,25.72,0,0,1-15.6-4.95,15.05,15.05,0,0,1-6.56-13.23l.08-.25h7.88a10.25,10.25,0,0,0,4.36,8.86,16.47,16.47,0,0,0,9.84,3.12q5.86,0,9.28-2.64A8.59,8.59,0,0,0,1316.61,1703.6Z"/><path class="cls-1" d="M1375,1719h-8.3v-61h8.3Z"/><path class="cls-1" d="M1466.05,1693.92q0,11.19-6.93,18.55t-18,7.38q-10.68,0-17.36-7.38t-6.68-18.55v-10.85q0-11.14,6.68-18.56t17.36-7.41q11.05,0,18,7.39t6.93,18.58ZM1457.8,1683q0-8.38-4.52-13.74a15.08,15.08,0,0,0-12.15-5.36,14,14,0,0,0-11.5,5.36q-4.29,5.36-4.29,13.74v10.93q0,8.46,4.29,13.82a14,14,0,0,0,11.5,5.36q7.66,0,12.17-5.34t4.5-13.84Z"/><path class="cls-1" d="M1553.4,1719h-8.25l-29.36-46.58-.25.08V1719h-8.25v-61h8.25l29.36,46.54.25-.09V1658h8.25Z"/></svg>